<svg width="24" height="24" viewBox="0 0 24 24" fill="none" xmlns="http://www.w3.org/2000/svg">
<path d="M19.1074 9.16802C18.1878 9.82186 17.0561 10.1063 15.9366 9.96509C14.8171 9.82385 13.7915 9.26718 13.0631 8.40541C12.3347 7.54364 11.9567 6.43967 12.0038 5.31229C12.051 4.1849 12.5201 3.11639 13.3179 2.31851C14.1158 1.52063 15.1843 1.05162 16.3117 1.00443C17.4391 0.957237 18.5431 1.33531 19.4048 2.06371C20.2666 2.79212 20.8233 3.8177 20.9645 4.93719C21.1058 6.05669 20.8213 7.18839 20.1674 8.10802L22.7804 10.72C22.8541 10.7887 22.9132 10.8715 22.9542 10.9635C22.9952 11.0555 23.0173 11.1548 23.019 11.2555C23.0208 11.3562 23.0023 11.4562 22.9646 11.5496C22.9268 11.643 22.8707 11.7278 22.7995 11.7991C22.7283 11.8703 22.6434 11.9264 22.55 11.9641C22.4566 12.0019 22.3566 12.0204 22.2559 12.0186C22.1552 12.0168 22.0559 11.9948 21.9639 11.9538C21.8719 11.9128 21.7891 11.8537 21.7204 11.78L19.1074 9.16802ZM19.5004 5.50002C19.5004 4.70437 19.1844 3.94131 18.6218 3.3787C18.0592 2.81609 17.2961 2.50002 16.5004 2.50002C15.7048 2.50002 14.9417 2.81609 14.3791 3.3787C13.8165 3.94131 13.5004 4.70437 13.5004 5.50002C13.5004 6.29567 13.8165 7.05873 14.3791 7.62134C14.9417 8.18395 15.7048 8.50002 16.5004 8.50002C17.2961 8.50002 18.0592 8.18395 18.6218 7.62134C19.1844 7.05873 19.5004 6.29567 19.5004 5.50002ZM19.0004 10.476V21.245C19.0005 21.3831 18.9624 21.5184 18.8905 21.6362C18.8185 21.754 18.7154 21.8497 18.5926 21.9126C18.4697 21.9756 18.3319 22.0034 18.1943 21.9931C18.0566 21.9828 17.9245 21.9346 17.8124 21.854L12.0024 17.673L6.19044 21.853C6.07846 21.9336 5.94643 21.9817 5.80887 21.9921C5.67131 22.0025 5.53355 21.9747 5.41075 21.9118C5.28795 21.849 5.18486 21.7535 5.11282 21.6359C5.04079 21.5182 5.00259 21.383 5.00244 21.245V6.24902C5.00244 5.38707 5.34485 4.56042 5.95434 3.95093C6.56384 3.34143 7.39049 2.99902 8.25244 2.99902H11.6004C11.0735 4.03 10.8853 5.20098 11.0628 6.34514C11.2403 7.4893 11.7743 8.54827 12.5888 9.37118C13.4033 10.1941 14.4567 10.739 15.599 10.9282C16.7412 11.1174 17.9141 10.9413 18.9504 10.425L19.0004 10.475V10.476Z" fill="#BBBBBB"/>
</svg>
